<svg width="24" height="22" viewBox="0 0 24 22" fill="none" xmlns="http://www.w3.org/2000/svg">
<path fill-rule="evenodd" clip-rule="evenodd" d="M0.826454 0.588457C0.0264536 1.78846 1.49312 2.75512 2.32645 3.08846C3.29744 3.65046 3.57898 6.42075 4.0522 11.077L4.09521 11.5C4.40794 14.5719 6.59521 15.8333 7.59521 16C7.99459 16.02 8.45805 16.0465 8.96725 16.0756L8.96802 16.0756C12.709 16.2896 18.9182 16.6447 20.3264 15.5885C21.9879 14.3424 22.6142 10.6809 23.0652 8.0438L23.0653 8.04358C23.1572 7.50633 23.2418 7.01161 23.3264 6.5885C23.7264 4.5885 22.4931 4.0885 21.8264 4.0885C16.8264 3.92182 6.52642 3.58846 5.32642 3.58846C5.32642 0.588457 1.82645 -0.911543 0.826454 0.588457ZM10.8262 6.00001C11.3785 6.00001 11.8262 6.44773 11.8262 7.00001V12C11.8262 12.5523 11.3785 13 10.8262 13C10.2739 13 9.82617 12.5523 9.82617 12V7.00001C9.82617 6.44773 10.2739 6.00001 10.8262 6.00001ZM16.3262 7.00001C16.3262 6.44773 15.8785 6.00001 15.3262 6.00001C14.7739 6.00001 14.3262 6.44773 14.3262 7.00001V12C14.3262 12.5523 14.7739 13 15.3262 13C15.8785 13 16.3262 12.5523 16.3262 12V7.00001Z" fill="#DC3F3D"/>
<circle cx="17.3262" cy="20" r="2" fill="#DC3F3D"/>
<circle cx="9.32617" cy="20" r="2" fill="#DC3F3D"/>
</svg>
