<svg width="28" height="23" viewBox="0 0 28 23" fill="none" xmlns="http://www.w3.org/2000/svg">
<path d="M0.836914 3.5V10.5C0.836914 12.5 2.33691 14.5 4.83691 16L5.33691 21C5.33691 21.5 5.63691 22.5 6.83691 22.5C8.03691 22.5 8.33691 21.5 8.33691 21C8.50358 20.1667 8.83691 18 8.83691 16C11.8369 15 12.3369 13 12.8369 10.5C13.2369 8.5 12.8369 4 12.3369 2C12.2286 1.56689 11.6369 1 10.8369 1C10.0369 1 9.83691 2 9.83691 2.5C9.83691 3 10.3369 6 10.3369 7C10.3369 8 10.3369 8.5 9.33691 8.5C8.13691 8.5 8.33692 7.5 8.33691 7V2C8.33691 1.33333 8.03691 0 6.83691 0C5.63691 0 5.33691 1.33333 5.33691 2V7C5.33692 7.5 5.53691 8.5 4.33691 8.5C3.13691 8.5 3.33691 7.5 3.33691 7C3.33691 6.5 3.83691 4.5 3.83691 3.5C3.83691 2.5 3.53691 1 2.33691 1C1.13691 1 0.836914 2.66667 0.836914 3.5Z" fill="#DC3F3D"/>
<path d="M21.3369 0C18.1369 0 16.3369 5.33333 15.8369 8C15.3369 11 15.8369 12 16.3369 13C16.7369 13.8 18.5035 15.3333 19.3369 16L19.8369 21C19.8369 21.5 20.1369 22.5 21.3369 22.5C22.5369 22.5 22.8369 21.5 22.8369 21L23.3369 16L26.3369 13C27.5369 11.8 27.1702 9.16667 26.8369 8C26.3369 5.33333 24.5369 0 21.3369 0Z" fill="#DC3F3D"/>
</svg>
