<svg width="19" height="25" viewBox="0 0 19 25" fill="none" xmlns="http://www.w3.org/2000/svg">
<path fill-rule="evenodd" clip-rule="evenodd" d="M0.5 4C0.5 1.79086 2.29086 0 4.5 0H14.5C16.7091 0 18.5 1.79086 18.5 4V21C18.5 23.2091 16.7091 25 14.5 25H4.5C2.29086 25 0.5 23.2091 0.5 21V4ZM3.5 5C3.5 3.89543 4.39543 3 5.5 3H13.5C14.6046 3 15.5 3.89543 15.5 5V15C15.5 16.1046 14.6046 17 13.5 17H5.5C4.39543 17 3.5 16.1046 3.5 15V5ZM9.5 23C10.6046 23 11.5 22.1046 11.5 21C11.5 19.8954 10.6046 19 9.5 19C8.39543 19 7.5 19.8954 7.5 21C7.5 22.1046 8.39543 23 9.5 23Z" fill="#0AAFD9"/>
<path d="M6.5 10.5L9.5 5V8.5H12L9.5 14V10.5H6.5Z" fill="#0AAFD9"/>
</svg>
