<svg width="27" height="22" viewBox="0 0 27 22" fill="none" xmlns="http://www.w3.org/2000/svg">
<path d="M14.4194 3.06414C14.4194 4.26414 16.4194 4.2308 17.4194 4.06414C17.4819 4.23083 17.7694 5.26421 18.4194 8.06421C19.9194 16.5642 16.9194 17.0642 14.9194 17.5642C12.9194 18.0642 11.4194 13.5642 12.9194 13.5642C14.1194 13.5642 15.0861 12.5642 15.4194 12.0642C15.9194 9.56421 15.9194 8.06421 8.91943 8.06421C0.919423 8.06421 1.41947 9.56421 0.419475 10.0642C-0.380525 10.4642 0.419441 11.5642 0.919424 12.0642C0.58609 12.7309 -0.580566 14.5642 0.919424 15.0642C3.91942 14.0642 5.91942 14.0642 8.41942 15.5642C10.4194 16.7642 10.5861 20.0642 10.4194 21.5642H17.9194C17.7528 20.8975 17.639 18.5717 19.4194 16.5642C21.9193 13.7455 23.5801 14.5642 26.0801 14.5642C26.5801 9.06421 21.9194 5.56421 20.4194 4.56421C22.0194 4.56421 21.4194 2.89754 20.9194 2.0642C20.2528 1.23087 18.6194 -0.335796 17.4194 0.0642037C16.2194 0.464204 16.5861 1.89749 16.9194 2.56414C16.0861 2.2308 14.4194 1.86414 14.4194 3.06414Z" fill="#3D872A"/>
</svg>
